#!OML:ASF E:\Steps\Project 1\Capture day 1\Session 2\Subject.ASF
:FULLY-SPECIFIED
:DEGREES
334
root -0.847825 15.7852 11.7007 -157.445 3.96581 179.724
lowerback -27.5132 0.195909 -6.21888
upperback 0.986184 2.94548 -1.81578
thorax 15.6485 1.02673 2.60352
lowerneck -2.83253 -0.667152 -3.67995
upperneck 25.8382 -5.11638 7.3989
head 8.75376 -3.05837 2.57607
rclavicle -2.24627e-014 -3.65764e-014
rhumerus -28.2205 -8.57088 -81.4819
rradius 47.7131
rwrist -7.53843
rhand -5.30291 -54.5942
rfingers 7.12502
rthumb 20.5023 -83.5316
lclavicle -2.24627e-014 -3.65764e-014
lhumerus -35.8514 9.3865 74.7077
lradius 19.2295
lwrist -6.44126
lhand -19.1777 -10.1337
lfingers 7.12502
lthumb 7.13362 19.7261
rfemur -12.6253 5.64437 25.3616
rtibia 12.4218
rfoot -24.51 -1.36774
rtoes -29.7545
lfemur -49.028 -7.80789 -10.5187
ltibia 10.9774
lfoot -5.22675 10.8547
ltoes -27.5435
335
root -0.854461 15.7545 11.5392 -157.524 4.17253 179.75
lowerback -27.5859 0.276988 -6.15035
upperback 0.999314 3.04653 -1.87096
thorax 15.6991 1.07704 2.54693
lowerneck -2.78467 -0.722882 -3.88592
upperneck 25.7272 -5.21448 7.63152
head 8.72213 -3.10308 2.68347
rclavicle -5.1684e-015 -1.59028e-015
rhumerus -28.051 -8.31862 -81.5282
rradius 48.0784
rwrist -7.70066
rhand -5.0763 -54.5422
rfingers 7.12502
rthumb 20.7201 -83.4561
lclavicle -5.1684e-015 -1.59028e-015
lhumerus -35.9637 9.54073 74.601
lradius 19.0669
lwrist -6.53381
lhand -19.2002 -10.2133
lfingers 7.12502
lthumb 7.11185 19.6473
rfemur -12.1203 5.66067 25.3174
rtibia 12.9856
rfoot -25.0549 -0.967619
rtoes -28.5991
lfemur -48.6606 -8.59859 -9.65243
ltibia 9.09494
lfoot -5.25298 11.0304
ltoes -29.7849
336
root -0.858061 15.7238 11.3779 -157.585 4.44427 179.912
lowerback -27.5465 0.423022 -5.9851
upperback 0.94512 3.18663 -1.91275
thorax 15.6175 1.15896 2.46297
lowerneck -3.05183 -0.656078 -4.009
upperneck 25.8821 -5.16582 7.83566
head 8.82932 -3.06716 2.77643
rclavicle -1.0138e-014 3.65764e-014
rhumerus -28.0022 -8.26178 -81.5871
rradius 48.4007
rwrist -7.63766
rhand -5.02294 -53.8599
rfingers 7.12502
rthumb 20.7714 -82.7682
lclavicle -1.0138e-014 3.65764e-014
lhumerus -36.0998 9.65936 74.4518
lradius 18.8073
lwrist -6.68991
lhand -19.1687 -10.5181
lfingers 7.12502
lthumb 7.14227 19.3414
rfemur -11.5961 5.86112 25.4373
rtibia 13.5046
rfoot -25.4631 -1.26534
rtoes -30.9942
lfemur -48.4042 -9.2975 -8.60937
ltibia 7.64163
lfoot -5.30684 11.6137
ltoes -30.2706
337
root -0.861046 15.6949 11.2196 -157.567 4.71433 180.097
lowerback -27.511 0.571094 -5.80051
upperback 0.845213 3.32721 -1.96332
thorax 15.4866 1.2477 2.35824
lowerneck -3.23358 -0.539184 -4.05492
upperneck 26.0771 -5.05786 7.96793
head 8.92726 -3.00983 2.838
rclavicle -3.18055e-015 -1.74931e-014
rhumerus -28.012 -8.12503 -81.6921
rradius 48.6857
rwrist -7.74588
rhand -5.20454 -53.652
rfingers 7.12502
rthumb 20.5969 -82.5793
lclavicle -3.18055e-015 -1.74931e-014
lhumerus -36.1573 10.0805 74.1449
lradius 18.4009
lwrist -7.21254
lhand -19.0274 -10.4296
lfingers 7.12502
lthumb 7.27867 19.4252
rfemur -11.1658 6.01871 25.563
rtibia 13.9392
rfoot -25.5825 -1.39178
rtoes -32.6683
lfemur -48.3318 -9.60075 -7.93368
ltibia 6.85535
lfoot -5.45731 12.0754
ltoes -30.749
338
root -0.871271 15.6689 11.0515 -157.63 5.03194 180.109
lowerback -27.6799 0.687704 -5.7352
upperback 0.804075 3.4916 -2.03899
thorax 15.5188 1.33135 2.3077
lowerneck -2.91814 -0.4659 -4.01336
upperneck 26.1172 -5.00274 7.91638
head 8.87611 -3.00884 2.82039
rclavicle 1.98785e-015 -7.95139e-015
rhumerus -28.0212 -7.95155 -81.7392
rradius 48.874
rwrist -8.01825
rhand -5.41551 -53.9904
rfingers 7.12502
rthumb 20.3941 -82.9395
lclavicle 1.98785e-015 -7.95139e-015
lhumerus -36.239 10.5105 73.929
lradius 17.9993
lwrist -7.80565
lhand -19.1428 -10.2064
lfingers 7.12502
lthumb 7.16735 19.6522
rfemur -10.6865 6.24435 25.3994
rtibia 14.4031
rfoot -25.7018 -1.14474
rtoes -32.0754
lfemur -48.1219 -9.81518 -7.82553
ltibia 6.43641
lfoot -5.58377 12.5615
ltoes -31.9016
339
root -0.881071 15.6429 10.8834 -157.651 5.26849 179.943
lowerback -28.0208 0.686116 -5.90491
upperback 0.971777 3.59373 -2.11955
thorax 15.8714 1.34672 2.36579
lowerneck -3.07076 -0.547137 -4.01962
upperneck 26.0146 -5.0507 7.86455
head 8.87141 -3.0191 2.79814
rclavicle -1.72943e-014 3.81667e-014
rhumerus -27.5419 -7.96637 -81.8293
rradius 48.9909
rwrist -8.17509
rhand -5.24824 -54.4653
rfingers 7.12502
rthumb 20.5549 -83.3971
lclavicle -1.72943e-014 3.81667e-014
lhumerus -35.9087 11.119 73.7615
lradius 17.5221
lwrist -8.51817
lhand -19.238 -10.4273
lfingers 7.12502
lthumb 7.07542 19.4344
rfemur -10.3609 6.43821 25.0865
rtibia 15.0505
rfoot -25.8646 -1.38751
rtoes -33.3192
lfemur -48.0305 -9.64549 -8.44138
ltibia 6.63211
lfoot -5.57154 12.531
ltoes -32.3101
